<svg width="100" height="36" viewBox="0 0 100 36" fill="none" xmlns="http://www.w3.org/2000/svg">
<rect width="100" height="36" fill="white"/>
<path d="M15 17.989C15 24.6104 20.3679 29.9783 26.9892 29.9783C33.6106 29.9783 38.9792 24.6104 38.9792 17.989C38.9792 11.3679 33.6106 6 26.9892 6C20.3679 6 15 11.3679 15 17.989" fill="#174A5B"/>
<path d="M30.0378 23.2328H23.0438L28.4125 17.5496C28.7988 17.1131 29.0005 16.542 29.0005 15.862C29.0005 14.2335 27.6591 12.9084 26.0096 12.9084C25.2312 12.9084 24.4956 13.2093 23.9399 13.7553L23.2454 13.0479C23.9875 12.3188 24.9699 11.9178 26.0096 11.9178C28.206 11.9178 29.9909 13.6874 29.9909 15.862C29.9909 16.7783 29.6983 17.593 29.144 18.2182L25.3435 22.2415H30.0378V23.2328V23.2328Z" fill="white"/>
<path d="M21.0417 23.124C19.8093 21.6996 19.13 19.8758 19.13 17.9892C19.13 16.1019 19.8093 14.2788 21.0417 12.8537C22.204 11.5098 23.7849 10.7928 25.5166 10.4654V8.9724C23.4091 9.31266 21.4773 10.3911 20.0729 12.0157C18.6389 13.6732 17.8484 15.7945 17.8484 17.9892C17.8484 20.1832 18.6389 22.3046 20.0729 23.9628C21.4773 25.5866 23.4091 26.6648 25.5166 27.0053V25.5125C23.7849 25.1856 22.204 24.4677 21.0417 23.124" fill="white"/>
<path d="M18.4896 17.3484V18.6293H25.1319L26.4136 17.3484H18.4896V17.3484Z" fill="white"/>
<path d="M35.4801 18.0681C35.4583 18.0407 35.4332 18.015 35.4099 17.9891C35.4332 17.9634 35.4583 17.9367 35.4801 17.9093C35.7237 17.6173 36.1092 17.0953 35.9551 16.2655C35.2364 12.5052 32.2247 9.58193 28.4498 8.97304V10.4016C31.5988 10.9959 34.092 13.3417 34.6961 16.5018C34.7468 16.7736 34.7226 16.9721 34.6235 17.0906C34.4873 17.2544 34.1661 17.3479 33.7426 17.3479H30.8865C30.7438 17.6763 30.5534 17.9778 30.3164 18.2449L29.9525 18.6296H33.7426C34.1661 18.6296 34.4873 18.7232 34.6235 18.8876C34.7226 19.0063 34.7468 19.2038 34.6969 19.4725C34.092 22.6366 31.5988 24.9823 28.4498 25.5766V27.0052C32.2247 26.3954 35.2364 23.473 35.9561 19.7095C36.1092 18.8821 35.7237 18.3602 35.4801 18.0681" fill="white"/>
<path d="M54.7598 25H46.7798V10.72H54.7598V12.3H48.5798V16.76H54.3998V18.32H48.5798V23.42H54.7598V25ZM61.8809 17.959C63.7168 17.1647 64.6348 16.084 64.6348 14.7168C64.6348 12.7832 63.6094 11.8164 61.5586 11.8164C59.5078 11.8164 58.4824 12.7832 58.4824 14.7168H57.0176C57.0176 11.8066 58.5312 10.3516 61.5586 10.3516C64.5859 10.3516 66.0996 11.8066 66.0996 14.7168C66.0996 16.748 64.8561 18.2975 62.3691 19.3652L60.5039 20.1758C59.1562 20.7292 58.4824 21.849 58.4824 23.5352H66.0996V25H57.0176V23.5352C57.0176 21.2044 58.0169 19.6126 60.0156 18.7598L61.8809 17.959ZM72.4766 16.5918C74.332 16.5918 75.2598 15.7943 75.2598 14.1992C75.2598 12.6107 74.332 11.8164 72.4766 11.8164C70.6211 11.8164 69.6934 12.6107 69.6934 14.1992H68.2285C68.2285 11.6341 69.6445 10.3516 72.4766 10.3516C75.3086 10.3516 76.7246 11.6276 76.7246 14.1797C76.7246 15.612 76.2819 16.6439 75.3965 17.2754C76.4772 17.946 77.0176 19.1178 77.0176 20.791C77.0176 23.597 75.5039 25 72.4766 25C69.4492 25 67.9355 23.5905 67.9355 20.7715H69.4004C69.4004 22.6139 70.4258 23.5352 72.4766 23.5352C74.5273 23.5352 75.5527 22.6139 75.5527 20.7715C75.5527 18.9355 74.5273 18.0176 72.4766 18.0176H71.7148V16.5918H72.4766Z" fill="black"/>
</svg>
