<?xml version="1.0" encoding="UTF-8" standalone="no"?><!DOCTYPE svg PUBLIC "-//W3C//DTD SVG 1.1//EN" "http://www.w3.org/Graphics/SVG/1.1/DTD/svg11.dtd"><svg width="100%" height="40" viewBox="0 0 529 529" version="1.1" xmlns="http://www.w3.org/2000/svg" xmlns:xlink="http://www.w3.org/1999/xlink" xml:space="preserve" xmlns:serif="http://www.serif.com/" style="fill-rule:evenodd;clip-rule:evenodd;stroke-linejoin:round;stroke-miterlimit:2;"><g id="Livello-1" serif:id="Livello 1"><path d="M0,264.258c0,145.946 118.317,264.263 264.263,264.263c145.945,-0 264.279,-118.317 264.279,-264.263c-0,-145.941 -118.334,-264.258 -264.279,-264.258c-145.946,0 -264.263,118.317 -264.263,264.258" style="fill:#174a5b;fill-rule:nonzero;"/><path d="M331.46,379.839l-154.159,-0l118.334,-125.267c8.516,-9.621 12.962,-22.208 12.962,-37.196c0,-35.896 -29.567,-65.104 -65.925,-65.104c-17.158,0 -33.371,6.633 -45.621,18.667l-15.308,-15.592c16.358,-16.071 38.012,-24.908 60.929,-24.908c48.413,-0 87.754,39.004 87.754,86.937c0,20.196 -6.45,38.154 -18.666,51.934l-83.771,88.679l103.471,-0l-0,21.85Z" style="fill:#fff;fill-rule:nonzero;"/><path d="M133.168,377.442c-27.166,-31.396 -42.137,-71.596 -42.137,-113.179c-0,-41.6 14.971,-81.783 42.137,-113.196c25.617,-29.621 60.463,-45.425 98.634,-52.642l-0,-32.908c-46.454,7.5 -89.034,31.271 -119.988,67.079c-31.608,36.534 -49.033,83.292 -49.033,131.667c-0,48.358 17.425,95.117 49.033,131.667c30.954,35.791 73.534,59.558 119.988,67.062l-0,-32.904c-38.171,-7.204 -73.017,-23.029 -98.634,-52.646" style="fill:#fff;fill-rule:nonzero;"/><path d="M76.915,250.137l-0,28.233l146.408,0l28.25,-28.233l-174.658,0Z" style="fill:#fff;fill-rule:nonzero;"/><path d="M451.414,266.002c-0.479,-0.604 -1.033,-1.171 -1.546,-1.742c0.513,-0.566 1.067,-1.154 1.546,-1.758c5.371,-6.437 13.867,-17.942 10.471,-36.233c-15.842,-82.884 -82.225,-147.317 -165.429,-160.738l-0,31.488c69.408,13.1 124.362,64.804 137.679,134.458c1.117,5.992 0.583,10.367 -1.6,12.979c-3.004,3.609 -10.083,5.671 -19.417,5.671l-62.954,0c-3.146,7.238 -7.341,13.883 -12.566,19.771l-8.021,8.479l83.541,0c9.334,0 16.413,2.063 19.417,5.688c2.183,2.616 2.717,6.97 1.617,12.891c-13.334,69.742 -68.288,121.446 -137.696,134.546l-0,31.488c83.204,-13.442 149.587,-77.855 165.45,-160.809c3.375,-18.237 -5.121,-29.741 -10.492,-36.179" style="fill:#fff;fill-rule:nonzero;"/></g></svg>